<?xml version="1.0" standalone="no"?><!DOCTYPE svg PUBLIC "-//W3C//DTD SVG 1.1//EN" "http://www.w3.org/Graphics/SVG/1.1/DTD/svg11.dtd"><svg t="1530174572009" class="icon" style="" viewBox="0 0 1024 1024" version="1.1" xmlns="http://www.w3.org/2000/svg" p-id="1051" xmlns:xlink="http://www.w3.org/1999/xlink" width="200" height="200"><defs><style type="text/css"></style></defs><path d="M560.207 468.549l0-269.272c0-19.27-15.63-34.891-35.245-34.891l-24.163 0c-19.466 0-35.245 15.502-35.245 34.891l0 269.272-266.619 0c-19.08 0-34.548 15.786-34.548 34.512l0 26.571c0 19.06 15.35 34.512 34.548 34.512l266.619 0 0 260.417c0 19.36 15.63 35.055 35.245 35.055l24.163 0c19.465 0 35.245-15.886 35.245-35.055l0-260.417 257.854 0c19.17 0 34.71-15.786 34.71-34.512l0-26.572c0-19.06-15.729-34.512-34.71-34.512l-257.854 0z" p-id="1052" fill="#6e6e76"></path></svg>